<svg width="218" height="61" xmlns="http://www.w3.org/2000/svg" xmlns:xlink="http://www.w3.org/1999/xlink"><defs><path id="path-1" d="M.06.001h54.12V60.94H.06z"/><path d="M28.444.001l1.368 2.371-1.368 2.372h-2.739l-1.369-2.372L25.705.001h2.739M.06 16.319l1.309-2.268h2.739l1.369 2.372-1.369 2.371H1.369L.06 16.527m0 6.826l1.312-2.272h2.737l1.37 2.371-1.37 2.372H1.372L.06 23.551v-.198m0 7.033l1.313-2.277h2.739l1.369 2.372-1.369 2.371H1.373L.06 30.576v-.19m0 7.032l1.316-2.279h2.738l1.37 2.371-1.37 2.372H1.376L.06 37.602m0 6.849l1.318-2.284h2.739l1.369 2.372-1.369 2.372H1.378L.06 44.627M28.51 60.94H25.7l-1.333-2.312 1.368-2.371h2.739l1.369 2.371-1.334 2.312M19.62 3.513h2.739l1.369 2.372-1.369 2.371h-2.739l-1.369-2.371m13.54-2.368h2.738l1.369 2.372L34.53 8.26h-2.738l-1.369-2.371M13.537 7.026h2.739l1.369 2.372-1.369 2.371h-2.739l-1.369-2.371m13.54-2.368h2.738l1.369 2.371-1.369 2.372h-2.738l-1.369-2.372m13.539-2.367h2.738l1.369 2.372-1.369 2.371h-2.738l-1.37-2.371M7.453 10.539h2.739l1.369 2.371-1.369 2.372H7.453L6.084 12.91m13.54-2.368h2.738l1.369 2.372-1.369 2.371h-2.738l-1.369-2.371m13.539-2.367h2.738l1.369 2.371-1.369 2.372h-2.738l-1.37-2.372m13.54-2.368h2.739l1.369 2.372-1.369 2.372h-2.739l-1.369-2.372M13.54 14.055h2.738l1.369 2.372-1.369 2.371H13.54l-1.369-2.371M25.71 14.06h2.738l1.369 2.37-1.369 2.373H25.71l-1.37-2.373m13.54-2.367h2.739l1.369 2.372-1.369 2.371H37.88l-1.369-2.371m13.54-2.368h2.738l1.369 2.371-1.369 2.372h-2.738l-1.37-2.372m-41.225 1.13h2.738l1.369 2.371-1.369 2.372H7.456l-1.369-2.372m13.538-2.368h2.739l1.369 2.372-1.369 2.371h-2.739l-1.368-2.371m13.539-2.367h2.739l1.369 2.371-1.369 2.372h-2.739l-1.369-2.372m13.54-2.368h2.738l1.369 2.372-1.369 2.371h-2.738l-1.37-2.371m-29.056 1.133h2.739l1.369 2.372-1.369 2.371h-2.739l-1.368-2.371m13.539-2.367h2.739l1.369 2.371-1.369 2.372h-2.739l-1.369-2.372m13.54-2.368h2.738l1.369 2.372-1.369 2.371h-2.738l-1.37-2.371M7.457 24.597h2.739l1.369 2.371-1.369 2.372H7.457l-1.368-2.372m13.539-2.367h2.739l1.369 2.372-1.369 2.371h-2.739l-1.369-2.371m13.54-2.368h2.738l1.369 2.371-1.369 2.372h-2.738l-1.37-2.372m-16.885 1.137h2.739l1.369 2.372-1.369 2.371h-2.739l-1.369-2.371m13.54-2.367h2.738l1.369 2.371-1.369 2.372h-2.738l-1.37-2.372m25.723-2.341h2.739l1.369 2.372-1.369 2.371h-2.739l-1.369-2.371M7.46 31.626h2.738l1.37 2.371-1.37 2.372H7.46l-1.369-2.372M19.63 31.63h2.739l1.369 2.372-1.369 2.371H19.63l-1.369-2.371m25.723-2.341h2.739l1.369 2.371-1.369 2.372h-2.739l-1.369-2.372m-29.069 1.111h2.739l1.369 2.371-1.369 2.372h-2.739l-1.369-2.372M25.73 35.17h2.738l1.37 2.372-1.37 2.371H25.73l-1.37-2.371m25.711-2.365h2.738l1.369 2.372-1.369 2.371h-2.738l-1.369-2.371m-41.24 1.107h2.739l1.369 2.371-1.369 2.372H7.462l-1.369-2.372m13.553-2.345h2.738l1.37 2.371-1.37 2.372h-2.738l-1.37-2.372m25.711-2.363h2.738l1.369 2.371-1.369 2.372h-2.738l-1.369-2.372m-29.056 1.134H16.3l1.37 2.371-1.37 2.371h-2.738l-1.37-2.371m13.54-2.367h2.739l1.369 2.371-1.369 2.372h-2.739l-1.369-2.372m13.54-2.367h2.738l1.369 2.371-1.369 2.372h-2.738l-1.369-2.372m13.538-2.368h2.739l1.369 2.372-1.369 2.371h-2.739l-1.368-2.371M7.478 45.707h2.738l1.37 2.372-1.37 2.371H7.478l-1.37-2.371m13.54-2.367h2.739l1.368 2.371-1.368 2.372h-2.739l-1.369-2.372m13.54-2.368h2.737l1.37 2.372-1.37 2.371h-2.737l-1.369-2.371m13.538-2.368h2.739l1.369 2.371-1.369 2.372h-2.739L42.62 48.09m-29.056 1.134h2.739l1.368 2.372-1.368 2.371h-2.739l-1.369-2.371m13.54-2.368h2.737l1.37 2.372-1.37 2.371h-2.737l-1.37-2.371m13.539-2.368h2.739l1.369 2.371-1.369 2.372h-2.739l-1.368-2.372m-16.885 1.138h2.737l1.37 2.371-1.37 2.372h-2.737l-1.37-2.372m13.539-2.368h2.739l1.369 2.372-1.369 2.371H31.82l-1.368-2.371" id="path-3"/></defs><g id="Page-1" fill="none" fill-rule="evenodd"><g id="gene-logo-text-black"><g id="Group-3"><mask id="mask-2" fill="#fff"><use xlink:href="#path-1"/></mask><path d="M25.705.001l-1.369 2.371 1.369 2.372h2.739l1.368-2.372L28.444.001h-2.739zm-6.084 3.512l-1.369 2.372 1.369 2.371h2.739l1.369-2.371-1.369-2.372h-2.739zm12.171.004l-1.369 2.372 1.369 2.371h2.738l1.369-2.371-1.369-2.372h-2.738zM13.537 7.026l-1.369 2.372 1.369 2.371h2.739l1.369-2.371-1.369-2.372h-2.739zm12.171.004l-1.369 2.371 1.369 2.372h2.738l1.369-2.372-1.369-2.371h-2.738zm12.17.004l-1.37 2.372 1.37 2.371h2.738l1.369-2.371-1.369-2.372h-2.738zM7.453 10.539L6.084 12.91l1.369 2.372h2.739l1.369-2.372-1.369-2.371H7.453zm12.171.003l-1.369 2.372 1.369 2.371h2.738l1.369-2.371-1.369-2.372h-2.738zm12.17.005l-1.37 2.371 1.37 2.372h2.738l1.369-2.372-1.369-2.371h-2.738zm12.17.003l-1.369 2.372 1.369 2.372h2.739l1.369-2.372-1.369-2.372h-2.739zM1.369 14.051L0 16.423l1.369 2.371h2.739l1.369-2.371-1.369-2.372H1.369zm12.171.004l-1.369 2.372 1.369 2.371h2.738l1.369-2.371-1.369-2.372H13.54zm12.17.005l-1.37 2.37 1.37 2.373h2.738l1.369-2.373-1.369-2.37H25.71zm12.17.003l-1.369 2.372 1.369 2.371h2.739l1.369-2.371-1.369-2.372H37.88zm12.171.004l-1.37 2.371 1.37 2.372h2.738l1.369-2.372-1.369-2.371h-2.738zM7.456 17.568l-1.369 2.371 1.369 2.372h2.738l1.369-2.372-1.369-2.371H7.456zm12.169.003l-1.368 2.372 1.368 2.371h2.739l1.369-2.371-1.369-2.372h-2.739zm12.171.005l-1.369 2.371 1.369 2.372h2.739l1.369-2.372-1.369-2.371h-2.739zm12.171.003l-1.37 2.372 1.37 2.371h2.738l1.369-2.371-1.369-2.372h-2.738zM1.372 21.081L.003 23.452l1.369 2.372h2.737l1.37-2.372-1.37-2.371H1.372zm12.169.003l-1.368 2.372 1.368 2.371h2.739l1.369-2.371-1.369-2.372h-2.739zm12.171.005l-1.369 2.371 1.369 2.372h2.739l1.369-2.372-1.369-2.371h-2.739zm12.171.003l-1.37 2.372 1.37 2.371h2.738l1.369-2.371-1.369-2.372h-2.738zM7.457 24.597l-1.368 2.371 1.368 2.372h2.739l1.369-2.372-1.369-2.371H7.457zm12.171.004l-1.369 2.372 1.369 2.371h2.739l1.369-2.371-1.369-2.372h-2.739zm12.171.004l-1.37 2.371 1.37 2.372h2.738l1.369-2.372-1.369-2.371h-2.738zM1.373 28.109L.005 30.481l1.368 2.371h2.739l1.369-2.371-1.369-2.372H1.373zm12.171.004l-1.369 2.372 1.369 2.371h2.739l1.369-2.371-1.369-2.372h-2.739zm12.171.005l-1.37 2.371 1.37 2.372h2.738l1.369-2.372-1.369-2.371h-2.738zm24.353.03l-1.369 2.372 1.369 2.371h2.739l1.369-2.371-1.369-2.372h-2.739zM7.46 31.626l-1.369 2.371 1.369 2.372h2.738l1.37-2.372-1.37-2.371H7.46zm12.17.004l-1.369 2.372 1.369 2.371h2.739l1.369-2.371-1.369-2.372H19.63zm24.354.031l-1.369 2.371 1.369 2.372h2.739l1.369-2.372-1.369-2.371h-2.739zM1.376 35.139L.007 37.51l1.369 2.372h2.738l1.37-2.372-1.37-2.371H1.376zm12.17.004l-1.369 2.371 1.369 2.372h2.739l1.369-2.372-1.369-2.371h-2.739zm12.184.027l-1.37 2.372 1.37 2.371h2.738l1.37-2.371-1.37-2.372H25.73zm24.341.007l-1.369 2.372 1.369 2.371h2.738l1.369-2.371-1.369-2.372h-2.738zM7.462 38.656l-1.369 2.371 1.369 2.372h2.739l1.369-2.372-1.369-2.371H7.462zm12.184.026l-1.37 2.371 1.37 2.372h2.738l1.37-2.372-1.37-2.371h-2.738zm24.341.008l-1.369 2.371 1.369 2.372h2.738l1.369-2.372-1.369-2.371h-2.738zM1.378 42.167L.009 44.539l1.369 2.372h2.739l1.369-2.372-1.369-2.372H1.378zm12.184.028l-1.37 2.371 1.37 2.371H16.3l1.37-2.371-1.37-2.371h-2.738zm12.17.004l-1.369 2.371 1.369 2.372h2.739l1.369-2.372-1.369-2.371h-2.739zm12.171.004l-1.369 2.371 1.369 2.372h2.738l1.369-2.372-1.369-2.371h-2.738zm12.169.003l-1.368 2.372 1.368 2.371h2.739l1.369-2.371-1.369-2.372h-2.739zM7.478 45.707l-1.37 2.372 1.37 2.371h2.738l1.37-2.371-1.37-2.372H7.478zm12.17.005l-1.369 2.371 1.369 2.372h2.739l1.368-2.372-1.368-2.371h-2.739zm12.171.003l-1.369 2.372 1.369 2.371h2.737l1.37-2.371-1.37-2.372h-2.737zm12.169.004L42.62 48.09l1.368 2.372h2.739l1.369-2.372-1.369-2.371h-2.739zm-30.424 3.505l-1.369 2.372 1.369 2.371h2.739l1.368-2.371-1.368-2.372h-2.739zm12.171.004l-1.37 2.372 1.37 2.371h2.737l1.37-2.371-1.37-2.372h-2.737zm12.169.004l-1.368 2.371 1.368 2.372h2.739l1.369-2.372-1.369-2.371h-2.739zm-18.253 3.509l-1.37 2.371 1.37 2.372h2.737l1.37-2.372-1.37-2.371h-2.737zm12.169.003l-1.368 2.372 1.368 2.371h2.739l1.369-2.371-1.369-2.372H31.82zm-6.084 3.513l-1.368 2.371L25.736 61h2.739l1.369-2.372-1.369-2.371h-2.739z" id="Fill-1" fill="#1A1919" mask="url(#mask-2)"/></g><g id="Group-6"><mask id="mask-4" fill="#fff"><use xlink:href="#path-3"/></mask><path id="Fill-4" fill="#1A1919" mask="url(#mask-4)" d="M-26.413 45.75l39.958-69.21 67.048 38.711-39.958 69.21-67.048-38.711"/></g><path d="M79.592 39.125c1.312-.535 2.451-1.2 3.419-1.994v-8.158h-8.34v3.677h3.574v2.202c-.762.501-1.732.751-2.91.751-.728 0-1.39-.125-1.988-.376a4.815 4.815 0 0 1-1.559-1.036 4.541 4.541 0 0 1-1.026-1.592 5.503 5.503 0 0 1-.364-2.021v-.051a5.18 5.18 0 0 1 1.347-3.523 4.594 4.594 0 0 1 1.463-1.061 4.301 4.301 0 0 1 1.826-.389c.897 0 1.687.147 2.37.44.681.294 1.35.717 2.007 1.269l2.952-3.548a11.398 11.398 0 0 0-3.198-1.942c-1.166-.466-2.551-.699-4.157-.699-1.399 0-2.697.242-3.895.725s-2.227 1.152-3.085 2.007a9.363 9.363 0 0 0-2.023 3.004 9.309 9.309 0 0 0-.735 3.691v.052c0 1.381.25 2.646.751 3.794a8.932 8.932 0 0 0 2.072 2.965 9.375 9.375 0 0 0 3.121 1.93c1.2.457 2.508.686 3.923.686 1.658 0 3.143-.268 4.455-.803" id="Fill-7" fill="#1A1919"/><path id="Fill-8" fill="#1A1919" d="M85.086 39.565H99.77v-4.273h-9.737v-2.875h8.702v-3.962h-8.702v-2.746h9.608v-4.273H85.086v18.129"/><path id="Fill-9" fill="#1A1919" d="M101.604 39.565h4.947V29.62l7.76 9.945h4.412V21.436h-4.947v9.582l-7.474-9.582h-4.698v18.129"/><path id="Fill-10" fill="#1A1919" d="M120.671 39.565h14.684v-4.273h-9.737v-2.875h8.702v-3.962h-8.702v-2.746h9.608v-4.273h-14.555v18.129"/><path id="Fill-11" fill="#1A1919" d="M144.394 27.848h.514v-6.473h-.514z"/><path id="Fill-12" fill="#1A1919" d="M147.033 21.375h.484l4.776 5.631v-5.631h.495v6.473h-.386l-4.875-5.752v5.752h-.494v-6.473"/><path id="Fill-13" fill="#1A1919" d="M154.841 21.375h.485l4.775 5.631v-5.631h.495v6.473h-.385l-4.875-5.752v5.752h-.495v-6.473"/><path d="M168.771 24.63v-.019c0-1.599-1.245-2.912-2.956-2.912-1.711 0-2.937 1.294-2.937 2.894v.018c0 1.6 1.247 2.913 2.957 2.913 1.71 0 2.936-1.295 2.936-2.894zm-6.427 0v-.019c0-1.766 1.395-3.347 3.491-3.347s3.47 1.563 3.47 3.329c.01.009.01.009 0 .018 0 1.766-1.393 3.347-3.49 3.347-2.097 0-3.471-1.562-3.471-3.328z" id="Fill-14" fill="#1A1919"/><path id="Fill-15" fill="#1A1919" d="M170.064 21.375h.573l2.709 5.955 2.719-5.955h.544l-3.045 6.519h-.455l-3.045-6.519"/><path d="M181.769 25.601l-1.819-3.746-1.829 3.746h3.648zm-2.057-4.272h.495l3.223 6.519h-.563l-.88-1.813h-4.084l-.88 1.813h-.533l3.222-6.519z" id="Fill-16" fill="#1A1919"/><path id="Fill-17" fill="#1A1919" d="M185.92 21.819h-2.413v-.444h5.339v.444h-2.412v6.029h-.514v-6.029"/><path id="Fill-18" fill="#1A1919" d="M190.476 27.848h.514v-6.473h-.514z"/><path d="M199.235 24.63v-.019c0-1.599-1.245-2.912-2.956-2.912-1.711 0-2.937 1.294-2.937 2.894v.018c0 1.6 1.246 2.913 2.956 2.913 1.711 0 2.937-1.295 2.937-2.894zm-6.427 0v-.019c0-1.766 1.395-3.347 3.49-3.347 2.097 0 3.471 1.563 3.471 3.329.01.009.01.009 0 .018 0 1.766-1.394 3.347-3.49 3.347s-3.471-1.562-3.471-3.328z" id="Fill-19" fill="#1A1919"/><path id="Fill-20" fill="#1A1919" d="M201.516 21.375h.485l4.776 5.631v-5.631h.494v6.473h-.386l-4.875-5.752v5.752h-.494v-6.473"/><path d="M215.574 22.707v-.019c0-.573-.475-1.017-1.098-1.017-.702 0-1.197.462-1.197 1.045v.018c0 .407.188.722.802 1.332.988-.296 1.493-.749 1.493-1.359zm.316 3.8l-2.047-1.979c-1.097.351-1.582.952-1.582 1.581v.019c0 .786.672 1.396 1.621 1.396.772 0 1.434-.388 2.008-1.017zm.326.314c-.653.712-1.414 1.119-2.343 1.119-1.216 0-2.126-.74-2.126-1.794v-.018c0-.869.663-1.507 1.79-1.896-.525-.545-.772-.943-.772-1.48v-.018c0-.832.722-1.47 1.731-1.47.899 0 1.591.629 1.591 1.405v.019c0 .804-.642 1.332-1.701 1.674l1.821 1.747c.336-.443.632-.98.899-1.572l.465.176c-.317.666-.653 1.248-1.028 1.72l1.275 1.23-.405.314-1.197-1.156z" id="Fill-21" fill="#1A1919"/><path id="Fill-22" fill="#1A1919" d="M144.325 33.036h5.686v1.56h-3.754v1.001h3.4v1.446h-3.4v1.049h3.804v1.559h-5.736v-6.615"/><path id="Fill-23" fill="#1A1919" d="M150.648 33.036h2.196l1.609 4.187 1.609-4.187h2.154l-2.873 6.662h-1.821l-2.874-6.662"/><path d="M162.623 38.13c.27 0 .517-.047.741-.142a1.699 1.699 0 0 0 .933-.945 1.77 1.77 0 0 0 .132-.681v-.018c0-.24-.044-.466-.132-.681a1.699 1.699 0 0 0-.376-.566 1.817 1.817 0 0 0-1.318-.539c-.271 0-.516.046-.736.141a1.81 1.81 0 0 0-.569.383c-.159.161-.28.349-.365.563-.084.213-.127.44-.127.68v.019a1.775 1.775 0 0 0 1.076 1.639c.223.098.47.147.741.147zm-.015 1.653a4.19 4.19 0 0 1-1.518-.268 3.778 3.778 0 0 1-1.204-.733 3.378 3.378 0 0 1-.795-1.087 3.142 3.142 0 0 1-.288-1.333v-.018c0-.473.096-.918.288-1.337a3.37 3.37 0 0 1 .805-1.097 3.878 3.878 0 0 1 1.214-.737c.466-.18.972-.27 1.518-.27s1.052.09 1.518.27c.465.18.866.424 1.204.732.337.309.602.671.794 1.087.193.416.288.861.288 1.333v.019c0 .472-.095.918-.288 1.337a3.352 3.352 0 0 1-.805 1.096 3.857 3.857 0 0 1-1.213.738 4.198 4.198 0 0 1-1.518.268z" id="Fill-24" fill="#1A1919"/><path id="Fill-25" fill="#1A1919" d="M167.596 33.036h1.963v5.009h3.43v1.606h-5.393v-6.615"/><path d="M177.147 39.774c-.506 0-.961-.06-1.365-.179a2.697 2.697 0 0 1-1.032-.553 2.421 2.421 0 0 1-.653-.945c-.152-.381-.228-.83-.228-1.347v-3.714h2.004v3.676c0 .479.117.834.351 1.063.235.231.549.345.944.345.394 0 .709-.11.943-.33.234-.221.351-.564.351-1.03v-3.724h2.004v3.667c0 .535-.079.997-.238 1.384a2.475 2.475 0 0 1-.668.955 2.74 2.74 0 0 1-1.042.553 4.891 4.891 0 0 1-1.371.179" id="Fill-26" fill="#1A1919"/><path id="Fill-27" fill="#1A1919" d="M183.492 34.643h-2.125v-1.607h6.213v1.607h-2.125v5.008h-1.963v-5.008"/><path id="Fill-28" fill="#1A1919" d="M188.622 39.651h1.972v-6.615h-1.972z"/><path d="M195.598 38.13c.271 0 .518-.047.74-.142a1.683 1.683 0 0 0 .934-.945 1.77 1.77 0 0 0 .132-.681v-.018c0-.24-.044-.466-.132-.681a1.727 1.727 0 0 0-.375-.566 1.82 1.82 0 0 0-1.319-.539c-.271 0-.516.046-.736.141a1.805 1.805 0 0 0-.568.383 1.653 1.653 0 0 0-.365.563c-.085.213-.127.44-.127.68v.019a1.775 1.775 0 0 0 1.075 1.639c.224.098.471.147.741.147zm-.015 1.653a4.198 4.198 0 0 1-1.518-.268 3.767 3.767 0 0 1-1.204-.733 3.375 3.375 0 0 1-.794-1.087 3.142 3.142 0 0 1-.289-1.333v-.018c0-.473.097-.918.289-1.337.192-.419.46-.785.804-1.097a3.872 3.872 0 0 1 1.215-.737c.464-.18.97-.27 1.517-.27.546 0 1.052.09 1.518.27.466.18.867.424 1.204.732.337.309.602.671.794 1.087.192.416.289.861.289 1.333v.019c0 .472-.097.918-.289 1.337-.192.419-.46.784-.804 1.096a3.867 3.867 0 0 1-1.215.738 4.189 4.189 0 0 1-1.517.268z" id="Fill-29" fill="#1A1919"/><path id="Fill-30" fill="#1A1919" d="M200.561 33.036h1.835l2.92 3.496v-3.496h1.933v6.615h-1.724l-3.031-3.629v3.629h-1.933v-6.615"/></g></g></svg>